# xmcd
#
# Track frame offsets:
#	150
#	11888
#	25716
#	38158
#	51442
#	52626
#	64571
#	76063
#	91642
#	105696
#	119867
#	136373
#	151276
#	165137
#	179079
#	198222
#
# Disc length: 2798 seconds
#
# Revision: 1
# Processed by: cddbd v1.5.2PL0 Copyright (c) Steve Scherf et al.
# Submitted via: audiograbber 1.83.01
#
DISCID=c30aec10
DTITLE=Hillcrest - Hillcrest Pure Country 73
DYEAR=2014
DGENRE=Country
TTITLE0=The Key´s In The Mailbox -Bonita Merrcer
TTITLE1=Drinking To You´re Memory -Johnny Bush
TTITLE2=Living Like Tomorrow Is Another Glass Of Wine -Jeff Chance
TTITLE3=I´ve love You All Over The World -Manson Grant and THe Dynamos
TTITLE4=Radio Liner -Sherry Kennedy
TTITLE5=Think On Me -Sherry Kennedy
TTITLE6=Just When I Needed You -Cliffy Short
TTITLE7=My Ode To Tijuana -Wesley Parker
TTITLE8=Almost Perfect Man -Shelly Jones
TTITLE9=This Is (Jim Reeves Remembered) -Ian Greig
TTITLE10=The Real Thing -Andy Martin
TTITLE11=I Refuse To Get The Blues -Mel Gibson
TTITLE12=I Like Ém Like That -Sherry Lynn
TTITLE13=The Old Draught Horse -Larie Muggleton
TTITLE14=My Fisherman And Me -Lisa Lambert
TTITLE15=Riders Ot The Kimberley -Terry Bennetts with Ian Simpson
EXTD=
EXTT0=
EXTT1=
EXTT2=
EXTT3=
EXTT4=
EXTT5=
EXTT6=
EXTT7=
EXTT8=
EXTT9=
EXTT10=
EXTT11=
EXTT12=
EXTT13=
EXTT14=
EXTT15=
PLAYORDER=
